<?xml version="1.0" encoding="utf-8"?>
<!-- Generator: Adobe Illustrator 16.0.0, SVG Export Plug-In . SVG Version: 6.00 Build 0)  -->
<!DOCTYPE svg PUBLIC "-//W3C//DTD SVG 1.1//EN" "http://www.w3.org/Graphics/SVG/1.1/DTD/svg11.dtd">
<svg version="1.1" id="圖層_1" xmlns="http://www.w3.org/2000/svg" xmlns:xlink="http://www.w3.org/1999/xlink" x="0px" y="0px"
	 width="1980px" height="2160px" viewBox="0 0 1980 2160" enable-background="new 0 0 1980 2160" xml:space="preserve">
<g>
	<g>
		<circle fill="#EFEFEF" cx="218.814" cy="703.472" r="5.142"/>
		<circle fill="#EFEFEF" cx="247.694" cy="703.472" r="5.142"/>
		<circle fill="#EFEFEF" cx="276.574" cy="703.472" r="5.142"/>
		<circle fill="#EFEFEF" cx="305.454" cy="703.472" r="5.142"/>
		<circle fill="#EFEFEF" cx="334.334" cy="703.472" r="5.142"/>
		<circle fill="#EFEFEF" cx="363.215" cy="703.472" r="5.142"/>
		<circle fill="#EFEFEF" cx="392.095" cy="703.472" r="5.142"/>
		<circle fill="#EFEFEF" cx="420.975" cy="703.472" r="5.142"/>
		<circle fill="#EFEFEF" cx="449.855" cy="703.472" r="5.142"/>
	</g>
	<g>
		<circle fill="#EFEFEF" cx="218.814" cy="732.353" r="5.142"/>
		<circle fill="#EFEFEF" cx="247.694" cy="732.353" r="5.142"/>
		<circle fill="#EFEFEF" cx="276.574" cy="732.353" r="5.142"/>
		<circle fill="#EFEFEF" cx="305.454" cy="732.353" r="5.142"/>
		<circle fill="#EFEFEF" cx="334.334" cy="732.353" r="5.142"/>
		<circle fill="#EFEFEF" cx="363.215" cy="732.353" r="5.142"/>
		<circle fill="#EFEFEF" cx="392.095" cy="732.353" r="5.142"/>
		<circle fill="#EFEFEF" cx="420.975" cy="732.353" r="5.142"/>
		<circle fill="#EFEFEF" cx="449.855" cy="732.353" r="5.142"/>
	</g>
	<g>
		<circle fill="#EFEFEF" cx="218.814" cy="761.232" r="5.142"/>
		<circle fill="#EFEFEF" cx="247.694" cy="761.232" r="5.142"/>
		<circle fill="#EFEFEF" cx="276.574" cy="761.232" r="5.142"/>
		<circle fill="#EFEFEF" cx="305.454" cy="761.232" r="5.142"/>
		<circle fill="#EFEFEF" cx="334.334" cy="761.232" r="5.142"/>
		<circle fill="#EFEFEF" cx="363.215" cy="761.232" r="5.142"/>
		<circle fill="#EFEFEF" cx="392.095" cy="761.232" r="5.142"/>
		<circle fill="#EFEFEF" cx="420.975" cy="761.232" r="5.142"/>
		<circle fill="#EFEFEF" cx="449.855" cy="761.232" r="5.142"/>
	</g>
	<g>
		<circle fill="#EFEFEF" cx="218.814" cy="790.112" r="5.142"/>
		<circle fill="#EFEFEF" cx="247.694" cy="790.112" r="5.142"/>
		<circle fill="#EFEFEF" cx="276.574" cy="790.112" r="5.142"/>
		<circle fill="#EFEFEF" cx="305.454" cy="790.112" r="5.142"/>
		<circle fill="#EFEFEF" cx="334.334" cy="790.112" r="5.142"/>
		<circle fill="#EFEFEF" cx="363.215" cy="790.112" r="5.142"/>
		<circle fill="#EFEFEF" cx="392.095" cy="790.112" r="5.142"/>
		<circle fill="#EFEFEF" cx="420.975" cy="790.112" r="5.142"/>
		<circle fill="#EFEFEF" cx="449.855" cy="790.112" r="5.142"/>
	</g>
	<g>
		<circle fill="#EFEFEF" cx="218.814" cy="818.993" r="5.142"/>
		<circle fill="#EFEFEF" cx="247.694" cy="818.993" r="5.142"/>
		<circle fill="#EFEFEF" cx="276.574" cy="818.993" r="5.142"/>
		<circle fill="#EFEFEF" cx="305.454" cy="818.993" r="5.142"/>
		<circle fill="#EFEFEF" cx="334.334" cy="818.993" r="5.142"/>
		<circle fill="#EFEFEF" cx="363.215" cy="818.993" r="5.142"/>
		<circle fill="#EFEFEF" cx="392.095" cy="818.993" r="5.142"/>
		<circle fill="#EFEFEF" cx="420.975" cy="818.993" r="5.142"/>
		<circle fill="#EFEFEF" cx="449.855" cy="818.993" r="5.142"/>
	</g>
	<g>
		<circle fill="#EFEFEF" cx="218.814" cy="847.873" r="5.142"/>
		<circle fill="#EFEFEF" cx="247.694" cy="847.873" r="5.142"/>
		<circle fill="#EFEFEF" cx="276.574" cy="847.873" r="5.142"/>
		<circle fill="#EFEFEF" cx="305.454" cy="847.873" r="5.142"/>
		<circle fill="#EFEFEF" cx="334.334" cy="847.873" r="5.142"/>
		<circle fill="#EFEFEF" cx="363.215" cy="847.873" r="5.142"/>
		<circle fill="#EFEFEF" cx="392.095" cy="847.873" r="5.142"/>
		<circle fill="#EFEFEF" cx="420.975" cy="847.873" r="5.142"/>
		<circle fill="#EFEFEF" cx="449.855" cy="847.873" r="5.142"/>
	</g>
</g>
<g>
	<g>
		<circle fill="#EFEFEF" cx="1195.998" cy="1157.303" r="3.932"/>
		<circle fill="#EFEFEF" cx="1221.9" cy="1157.303" r="3.931"/>
		<circle fill="#EFEFEF" cx="1247.803" cy="1157.303" r="3.931"/>
		<circle fill="#EFEFEF" cx="1273.707" cy="1157.303" r="3.93"/>
		<circle fill="#EFEFEF" cx="1299.61" cy="1157.303" r="3.931"/>
		<circle fill="#EFEFEF" cx="1325.514" cy="1157.303" r="3.932"/>
		<circle fill="#EFEFEF" cx="1351.416" cy="1157.303" r="3.932"/>
		<circle fill="#EFEFEF" cx="1377.319" cy="1157.303" r="3.931"/>
	</g>
	<g>
		<circle fill="#EFEFEF" cx="1195.998" cy="1179.384" r="3.932"/>
		<circle fill="#EFEFEF" cx="1221.9" cy="1179.384" r="3.931"/>
		<circle fill="#EFEFEF" cx="1247.803" cy="1179.384" r="3.931"/>
		<circle fill="#EFEFEF" cx="1273.707" cy="1179.384" r="3.93"/>
		<circle fill="#EFEFEF" cx="1299.61" cy="1179.384" r="3.931"/>
		<circle fill="#EFEFEF" cx="1325.514" cy="1179.384" r="3.932"/>
		<circle fill="#EFEFEF" cx="1351.416" cy="1179.384" r="3.932"/>
		<circle fill="#EFEFEF" cx="1377.319" cy="1179.384" r="3.931"/>
	</g>
	<g>
		<circle fill="#EFEFEF" cx="1195.998" cy="1201.464" r="3.932"/>
		<circle fill="#EFEFEF" cx="1221.9" cy="1201.464" r="3.931"/>
		<circle fill="#EFEFEF" cx="1247.803" cy="1201.464" r="3.931"/>
		<circle fill="#EFEFEF" cx="1273.707" cy="1201.464" r="3.93"/>
		<circle fill="#EFEFEF" cx="1299.61" cy="1201.464" r="3.931"/>
		<circle fill="#EFEFEF" cx="1325.514" cy="1201.464" r="3.932"/>
		<circle fill="#EFEFEF" cx="1351.416" cy="1201.464" r="3.932"/>
		<circle fill="#EFEFEF" cx="1377.319" cy="1201.464" r="3.931"/>
	</g>
	<g>
		<circle fill="#EFEFEF" cx="1195.998" cy="1223.544" r="3.932"/>
		<circle fill="#EFEFEF" cx="1221.9" cy="1223.544" r="3.931"/>
		<circle fill="#EFEFEF" cx="1247.803" cy="1223.544" r="3.931"/>
		<circle fill="#EFEFEF" cx="1273.707" cy="1223.544" r="3.93"/>
		<circle fill="#EFEFEF" cx="1299.61" cy="1223.544" r="3.931"/>
		<circle fill="#EFEFEF" cx="1325.514" cy="1223.544" r="3.932"/>
		<circle fill="#EFEFEF" cx="1351.416" cy="1223.544" r="3.932"/>
		<circle fill="#EFEFEF" cx="1377.319" cy="1223.544" r="3.931"/>
	</g>
	<g>
		<circle fill="#EFEFEF" cx="1195.998" cy="1245.625" r="3.932"/>
		<circle fill="#EFEFEF" cx="1221.9" cy="1245.625" r="3.931"/>
		<circle fill="#EFEFEF" cx="1247.803" cy="1245.625" r="3.931"/>
		<circle fill="#EFEFEF" cx="1273.707" cy="1245.625" r="3.93"/>
		<circle fill="#EFEFEF" cx="1299.61" cy="1245.625" r="3.931"/>
		<circle fill="#EFEFEF" cx="1325.514" cy="1245.625" r="3.932"/>
		<circle fill="#EFEFEF" cx="1351.416" cy="1245.625" r="3.932"/>
		<circle fill="#EFEFEF" cx="1377.319" cy="1245.625" r="3.931"/>
	</g>
</g>
<g>
	<g>
		<circle fill="#EFEFEF" cx="1195.998" cy="1267.705" r="3.932"/>
		<circle fill="#EFEFEF" cx="1221.9" cy="1267.705" r="3.931"/>
		<circle fill="#EFEFEF" cx="1247.803" cy="1267.705" r="3.931"/>
		<circle fill="#EFEFEF" cx="1273.707" cy="1267.705" r="3.93"/>
		<circle fill="#EFEFEF" cx="1299.61" cy="1267.705" r="3.931"/>
		<circle fill="#EFEFEF" cx="1325.514" cy="1267.705" r="3.932"/>
		<circle fill="#EFEFEF" cx="1351.416" cy="1267.705" r="3.932"/>
		<circle fill="#EFEFEF" cx="1377.319" cy="1267.705" r="3.931"/>
	</g>
	<g>
		<circle fill="#EFEFEF" cx="1195.998" cy="1289.786" r="3.932"/>
		<circle fill="#EFEFEF" cx="1221.9" cy="1289.786" r="3.931"/>
		<circle fill="#EFEFEF" cx="1247.803" cy="1289.786" r="3.931"/>
		<circle fill="#EFEFEF" cx="1273.707" cy="1289.786" r="3.93"/>
		<circle fill="#EFEFEF" cx="1299.61" cy="1289.786" r="3.931"/>
		<circle fill="#EFEFEF" cx="1325.514" cy="1289.786" r="3.932"/>
		<circle fill="#EFEFEF" cx="1351.416" cy="1289.786" r="3.932"/>
		<circle fill="#EFEFEF" cx="1377.319" cy="1289.786" r="3.931"/>
	</g>
	<g>
		<circle fill="#EFEFEF" cx="1195.998" cy="1311.866" r="3.932"/>
		<circle fill="#EFEFEF" cx="1221.9" cy="1311.866" r="3.931"/>
		<circle fill="#EFEFEF" cx="1247.803" cy="1311.866" r="3.931"/>
		<circle fill="#EFEFEF" cx="1273.707" cy="1311.866" r="3.93"/>
		<circle fill="#EFEFEF" cx="1299.61" cy="1311.866" r="3.931"/>
		<circle fill="#EFEFEF" cx="1325.514" cy="1311.866" r="3.932"/>
		<circle fill="#EFEFEF" cx="1351.416" cy="1311.866" r="3.932"/>
		<circle fill="#EFEFEF" cx="1377.319" cy="1311.866" r="3.931"/>
	</g>
	<g>
		<circle fill="#EFEFEF" cx="1195.998" cy="1333.946" r="3.932"/>
		<circle fill="#EFEFEF" cx="1221.9" cy="1333.946" r="3.931"/>
		<circle fill="#EFEFEF" cx="1247.803" cy="1333.946" r="3.931"/>
		<circle fill="#EFEFEF" cx="1273.707" cy="1333.946" r="3.93"/>
		<circle fill="#EFEFEF" cx="1299.61" cy="1333.946" r="3.931"/>
		<circle fill="#EFEFEF" cx="1325.514" cy="1333.946" r="3.932"/>
		<circle fill="#EFEFEF" cx="1351.416" cy="1333.946" r="3.932"/>
		<circle fill="#EFEFEF" cx="1377.319" cy="1333.946" r="3.931"/>
	</g>
	<g>
		<circle fill="#EFEFEF" cx="1195.998" cy="1356.027" r="3.932"/>
		<circle fill="#EFEFEF" cx="1221.9" cy="1356.027" r="3.931"/>
		<circle fill="#EFEFEF" cx="1247.803" cy="1356.027" r="3.931"/>
		<circle fill="#EFEFEF" cx="1273.707" cy="1356.027" r="3.93"/>
		<circle fill="#EFEFEF" cx="1299.61" cy="1356.027" r="3.931"/>
		<circle fill="#EFEFEF" cx="1325.514" cy="1356.027" r="3.932"/>
		<circle fill="#EFEFEF" cx="1351.416" cy="1356.027" r="3.932"/>
		<circle fill="#EFEFEF" cx="1377.319" cy="1356.027" r="3.931"/>
	</g>
</g>
<g>
	<circle fill="#EFEFEF" cx="1040.484" cy="1201.787" r="10"/>
	<circle fill="#EFEFEF" cx="1092.3" cy="1201.787" r="10"/>
	<circle fill="#EFEFEF" cx="1144.116" cy="1201.787" r="10"/>
	<circle fill="#EFEFEF" cx="1195.932" cy="1201.787" r="10"/>
	<circle fill="#EFEFEF" cx="1247.747" cy="1201.787" r="10"/>
	<circle fill="#EFEFEF" cx="1299.563" cy="1201.787" r="10"/>
</g>
<g>
	<circle fill="#EFEFEF" cx="1452.668" cy="257.307" r="2.466"/>
	<circle fill="#EFEFEF" cx="1471.519" cy="257.307" r="2.466"/>
	<circle fill="#EFEFEF" cx="1490.369" cy="257.307" r="2.466"/>
	<circle fill="#EFEFEF" cx="1509.22" cy="257.307" r="2.466"/>
	<circle fill="#EFEFEF" cx="1528.07" cy="257.307" r="2.466"/>
	<circle fill="#EFEFEF" cx="1546.921" cy="257.307" r="2.467"/>
	<circle fill="#EFEFEF" cx="1565.771" cy="257.307" r="2.466"/>
	<circle fill="#EFEFEF" cx="1584.622" cy="257.307" r="2.466"/>
	<circle fill="#EFEFEF" cx="1603.472" cy="257.307" r="2.466"/>
	<circle fill="#EFEFEF" cx="1452.668" cy="276.158" r="2.466"/>
	<circle fill="#EFEFEF" cx="1471.519" cy="276.158" r="2.466"/>
	<circle fill="#EFEFEF" cx="1490.369" cy="276.158" r="2.466"/>
	<circle fill="#EFEFEF" cx="1509.22" cy="276.158" r="2.466"/>
	<circle fill="#EFEFEF" cx="1528.07" cy="276.158" r="2.466"/>
	<circle fill="#EFEFEF" cx="1546.921" cy="276.158" r="2.467"/>
	<circle fill="#EFEFEF" cx="1565.771" cy="276.158" r="2.466"/>
	<circle fill="#EFEFEF" cx="1584.622" cy="276.158" r="2.466"/>
	<circle fill="#EFEFEF" cx="1603.472" cy="276.158" r="2.466"/>
	<circle fill="#EFEFEF" cx="1452.668" cy="295.008" r="2.466"/>
	<circle fill="#EFEFEF" cx="1471.519" cy="295.008" r="2.466"/>
	<circle fill="#EFEFEF" cx="1490.369" cy="295.008" r="2.466"/>
	<circle fill="#EFEFEF" cx="1509.22" cy="295.008" r="2.466"/>
	<circle fill="#EFEFEF" cx="1528.07" cy="295.008" r="2.466"/>
	<circle fill="#EFEFEF" cx="1546.921" cy="295.008" r="2.467"/>
	<circle fill="#EFEFEF" cx="1565.771" cy="295.008" r="2.466"/>
	<circle fill="#EFEFEF" cx="1584.622" cy="295.008" r="2.466"/>
	<circle fill="#EFEFEF" cx="1603.472" cy="295.008" r="2.466"/>
	<circle fill="#EFEFEF" cx="1452.668" cy="313.859" r="2.466"/>
	<circle fill="#EFEFEF" cx="1471.519" cy="313.859" r="2.466"/>
	<circle fill="#EFEFEF" cx="1490.369" cy="313.859" r="2.466"/>
	<circle fill="#EFEFEF" cx="1509.22" cy="313.859" r="2.466"/>
	<circle fill="#EFEFEF" cx="1528.07" cy="313.859" r="2.466"/>
	<circle fill="#EFEFEF" cx="1546.921" cy="313.859" r="2.467"/>
	<circle fill="#EFEFEF" cx="1565.771" cy="313.859" r="2.466"/>
	<circle fill="#EFEFEF" cx="1584.622" cy="313.859" r="2.466"/>
	<circle fill="#EFEFEF" cx="1603.472" cy="313.859" r="2.466"/>
	<circle fill="#EFEFEF" cx="1452.668" cy="332.709" r="2.466"/>
	<circle fill="#EFEFEF" cx="1471.519" cy="332.709" r="2.466"/>
	<circle fill="#EFEFEF" cx="1490.369" cy="332.709" r="2.466"/>
	<circle fill="#EFEFEF" cx="1509.22" cy="332.709" r="2.466"/>
	<circle fill="#EFEFEF" cx="1528.07" cy="332.709" r="2.466"/>
	<circle fill="#EFEFEF" cx="1546.921" cy="332.709" r="2.467"/>
	<circle fill="#EFEFEF" cx="1565.771" cy="332.709" r="2.466"/>
	<circle fill="#EFEFEF" cx="1584.622" cy="332.709" r="2.466"/>
	<circle fill="#EFEFEF" cx="1603.472" cy="332.709" r="2.466"/>
	<circle fill="#EFEFEF" cx="1452.668" cy="351.56" r="2.466"/>
	<circle fill="#EFEFEF" cx="1471.519" cy="351.56" r="2.466"/>
	<circle fill="#EFEFEF" cx="1490.369" cy="351.56" r="2.466"/>
	<circle fill="#EFEFEF" cx="1509.22" cy="351.56" r="2.466"/>
	<circle fill="#EFEFEF" cx="1528.07" cy="351.56" r="2.466"/>
	<circle fill="#EFEFEF" cx="1546.921" cy="351.56" r="2.467"/>
	<circle fill="#EFEFEF" cx="1565.771" cy="351.56" r="2.466"/>
	<circle fill="#EFEFEF" cx="1584.622" cy="351.56" r="2.466"/>
	<circle fill="#EFEFEF" cx="1603.472" cy="351.56" r="2.466"/>
	<circle fill="#EFEFEF" cx="1622.322" cy="257.307" r="2.466"/>
	<circle fill="#EFEFEF" cx="1641.173" cy="257.307" r="2.466"/>
	<circle fill="#EFEFEF" cx="1660.023" cy="257.307" r="2.466"/>
	<circle fill="#EFEFEF" cx="1678.874" cy="257.307" r="2.466"/>
	<circle fill="#EFEFEF" cx="1697.725" cy="257.307" r="2.466"/>
	<circle fill="#EFEFEF" cx="1716.575" cy="257.307" r="2.467"/>
	<circle fill="#EFEFEF" cx="1735.426" cy="257.307" r="2.466"/>
	<circle fill="#EFEFEF" cx="1622.322" cy="276.158" r="2.466"/>
	<circle fill="#EFEFEF" cx="1641.173" cy="276.158" r="2.466"/>
	<circle fill="#EFEFEF" cx="1660.023" cy="276.158" r="2.466"/>
	<circle fill="#EFEFEF" cx="1678.874" cy="276.158" r="2.466"/>
	<circle fill="#EFEFEF" cx="1697.725" cy="276.158" r="2.466"/>
	<circle fill="#EFEFEF" cx="1716.575" cy="276.158" r="2.467"/>
	<circle fill="#EFEFEF" cx="1735.426" cy="276.158" r="2.466"/>
	<circle fill="#EFEFEF" cx="1622.322" cy="295.008" r="2.466"/>
	<circle fill="#EFEFEF" cx="1641.173" cy="295.008" r="2.466"/>
	<circle fill="#EFEFEF" cx="1660.023" cy="295.008" r="2.466"/>
	<circle fill="#EFEFEF" cx="1678.874" cy="295.008" r="2.466"/>
	<circle fill="#EFEFEF" cx="1697.725" cy="295.008" r="2.466"/>
	<circle fill="#EFEFEF" cx="1716.575" cy="295.008" r="2.467"/>
	<circle fill="#EFEFEF" cx="1735.426" cy="295.008" r="2.466"/>
	<circle fill="#EFEFEF" cx="1622.322" cy="313.859" r="2.466"/>
	<circle fill="#EFEFEF" cx="1641.173" cy="313.859" r="2.466"/>
	<circle fill="#EFEFEF" cx="1660.023" cy="313.859" r="2.466"/>
	<circle fill="#EFEFEF" cx="1678.874" cy="313.859" r="2.466"/>
	<circle fill="#EFEFEF" cx="1697.725" cy="313.859" r="2.466"/>
	<circle fill="#EFEFEF" cx="1716.575" cy="313.859" r="2.467"/>
	<circle fill="#EFEFEF" cx="1735.426" cy="313.859" r="2.466"/>
	<circle fill="#EFEFEF" cx="1622.322" cy="332.709" r="2.466"/>
	<circle fill="#EFEFEF" cx="1641.173" cy="332.709" r="2.466"/>
	<circle fill="#EFEFEF" cx="1660.023" cy="332.709" r="2.466"/>
	<circle fill="#EFEFEF" cx="1678.874" cy="332.709" r="2.466"/>
	<circle fill="#EFEFEF" cx="1697.725" cy="332.709" r="2.466"/>
	<circle fill="#EFEFEF" cx="1716.575" cy="332.709" r="2.467"/>
	<circle fill="#EFEFEF" cx="1735.426" cy="332.709" r="2.466"/>
	<circle fill="#EFEFEF" cx="1622.322" cy="351.56" r="2.466"/>
	<circle fill="#EFEFEF" cx="1641.173" cy="351.56" r="2.466"/>
	<circle fill="#EFEFEF" cx="1660.023" cy="351.56" r="2.466"/>
	<circle fill="#EFEFEF" cx="1678.874" cy="351.56" r="2.466"/>
	<circle fill="#EFEFEF" cx="1697.725" cy="351.56" r="2.466"/>
	<circle fill="#EFEFEF" cx="1716.575" cy="351.56" r="2.467"/>
	<circle fill="#EFEFEF" cx="1735.426" cy="351.56" r="2.466"/>
	<circle fill="#EFEFEF" cx="1452.668" cy="370.402" r="2.466"/>
	<circle fill="#EFEFEF" cx="1471.519" cy="370.402" r="2.466"/>
	<circle fill="#EFEFEF" cx="1490.369" cy="370.402" r="2.466"/>
	<circle fill="#EFEFEF" cx="1509.22" cy="370.402" r="2.466"/>
	<circle fill="#EFEFEF" cx="1528.07" cy="370.402" r="2.466"/>
	<circle fill="#EFEFEF" cx="1546.921" cy="370.402" r="2.467"/>
	<circle fill="#EFEFEF" cx="1565.771" cy="370.402" r="2.466"/>
	<circle fill="#EFEFEF" cx="1584.622" cy="370.402" r="2.466"/>
	<circle fill="#EFEFEF" cx="1603.472" cy="370.402" r="2.466"/>
	<circle fill="#EFEFEF" cx="1452.668" cy="389.252" r="2.466"/>
	<circle fill="#EFEFEF" cx="1471.519" cy="389.252" r="2.466"/>
	<circle fill="#EFEFEF" cx="1490.369" cy="389.252" r="2.466"/>
	<circle fill="#EFEFEF" cx="1509.22" cy="389.252" r="2.466"/>
	<circle fill="#EFEFEF" cx="1528.07" cy="389.252" r="2.466"/>
	<circle fill="#EFEFEF" cx="1546.921" cy="389.252" r="2.467"/>
	<circle fill="#EFEFEF" cx="1565.771" cy="389.252" r="2.466"/>
	<circle fill="#EFEFEF" cx="1584.622" cy="389.252" r="2.466"/>
	<circle fill="#EFEFEF" cx="1603.472" cy="389.252" r="2.466"/>
	<circle fill="#EFEFEF" cx="1452.668" cy="408.103" r="2.466"/>
	<circle fill="#EFEFEF" cx="1471.519" cy="408.103" r="2.466"/>
	<circle fill="#EFEFEF" cx="1490.369" cy="408.103" r="2.466"/>
	<circle fill="#EFEFEF" cx="1509.22" cy="408.103" r="2.466"/>
	<circle fill="#EFEFEF" cx="1528.07" cy="408.103" r="2.466"/>
	<circle fill="#EFEFEF" cx="1546.921" cy="408.103" r="2.467"/>
	<circle fill="#EFEFEF" cx="1565.771" cy="408.103" r="2.466"/>
	<circle fill="#EFEFEF" cx="1584.622" cy="408.103" r="2.466"/>
	<circle fill="#EFEFEF" cx="1603.472" cy="408.103" r="2.466"/>
	<circle fill="#EFEFEF" cx="1452.668" cy="426.954" r="2.466"/>
	<circle fill="#EFEFEF" cx="1471.519" cy="426.954" r="2.466"/>
	<circle fill="#EFEFEF" cx="1490.369" cy="426.954" r="2.466"/>
	<circle fill="#EFEFEF" cx="1509.22" cy="426.954" r="2.466"/>
	<circle fill="#EFEFEF" cx="1528.07" cy="426.954" r="2.466"/>
	<circle fill="#EFEFEF" cx="1546.921" cy="426.954" r="2.467"/>
	<circle fill="#EFEFEF" cx="1565.771" cy="426.954" r="2.466"/>
	<circle fill="#EFEFEF" cx="1584.622" cy="426.954" r="2.466"/>
	<circle fill="#EFEFEF" cx="1603.472" cy="426.954" r="2.466"/>
	<circle fill="#EFEFEF" cx="1452.668" cy="445.804" r="2.466"/>
	<circle fill="#EFEFEF" cx="1471.519" cy="445.804" r="2.466"/>
	<circle fill="#EFEFEF" cx="1490.369" cy="445.804" r="2.466"/>
	<circle fill="#EFEFEF" cx="1509.22" cy="445.804" r="2.466"/>
	<circle fill="#EFEFEF" cx="1528.07" cy="445.804" r="2.466"/>
	<circle fill="#EFEFEF" cx="1546.921" cy="445.804" r="2.467"/>
	<circle fill="#EFEFEF" cx="1565.771" cy="445.804" r="2.466"/>
	<circle fill="#EFEFEF" cx="1584.622" cy="445.804" r="2.466"/>
	<circle fill="#EFEFEF" cx="1603.472" cy="445.804" r="2.466"/>
	<circle fill="#EFEFEF" cx="1452.668" cy="464.655" r="2.466"/>
	<circle fill="#EFEFEF" cx="1471.519" cy="464.655" r="2.466"/>
	<circle fill="#EFEFEF" cx="1490.369" cy="464.655" r="2.466"/>
	<circle fill="#EFEFEF" cx="1509.22" cy="464.655" r="2.466"/>
	<circle fill="#EFEFEF" cx="1528.07" cy="464.655" r="2.466"/>
	<circle fill="#EFEFEF" cx="1546.921" cy="464.655" r="2.467"/>
	<circle fill="#EFEFEF" cx="1565.771" cy="464.655" r="2.466"/>
	<circle fill="#EFEFEF" cx="1584.622" cy="464.655" r="2.466"/>
	<circle fill="#EFEFEF" cx="1603.472" cy="464.655" r="2.466"/>
	<circle fill="#EFEFEF" cx="1622.322" cy="370.402" r="2.466"/>
	<circle fill="#EFEFEF" cx="1641.173" cy="370.402" r="2.466"/>
	<circle fill="#EFEFEF" cx="1660.023" cy="370.402" r="2.466"/>
	<circle fill="#EFEFEF" cx="1678.874" cy="370.402" r="2.466"/>
	<circle fill="#EFEFEF" cx="1697.725" cy="370.402" r="2.466"/>
	<circle fill="#EFEFEF" cx="1716.575" cy="370.402" r="2.467"/>
	<circle fill="#EFEFEF" cx="1735.426" cy="370.402" r="2.466"/>
	<circle fill="#EFEFEF" cx="1622.322" cy="389.252" r="2.466"/>
	<circle fill="#EFEFEF" cx="1641.173" cy="389.252" r="2.466"/>
	<circle fill="#EFEFEF" cx="1660.023" cy="389.252" r="2.466"/>
	<circle fill="#EFEFEF" cx="1678.874" cy="389.252" r="2.466"/>
	<circle fill="#EFEFEF" cx="1697.725" cy="389.252" r="2.466"/>
	<circle fill="#EFEFEF" cx="1716.575" cy="389.252" r="2.467"/>
	<circle fill="#EFEFEF" cx="1735.426" cy="389.252" r="2.466"/>
	<circle fill="#EFEFEF" cx="1622.322" cy="408.103" r="2.466"/>
	<circle fill="#EFEFEF" cx="1641.173" cy="408.103" r="2.466"/>
	<circle fill="#EFEFEF" cx="1660.023" cy="408.103" r="2.466"/>
	<circle fill="#EFEFEF" cx="1678.874" cy="408.103" r="2.466"/>
	<circle fill="#EFEFEF" cx="1697.725" cy="408.103" r="2.466"/>
	<circle fill="#EFEFEF" cx="1716.575" cy="408.103" r="2.467"/>
	<circle fill="#EFEFEF" cx="1735.426" cy="408.103" r="2.466"/>
	<circle fill="#EFEFEF" cx="1622.322" cy="426.954" r="2.466"/>
	<circle fill="#EFEFEF" cx="1641.173" cy="426.954" r="2.466"/>
	<circle fill="#EFEFEF" cx="1660.023" cy="426.954" r="2.466"/>
	<circle fill="#EFEFEF" cx="1678.874" cy="426.954" r="2.466"/>
	<circle fill="#EFEFEF" cx="1697.725" cy="426.954" r="2.466"/>
	<circle fill="#EFEFEF" cx="1716.575" cy="426.954" r="2.467"/>
	<circle fill="#EFEFEF" cx="1735.426" cy="426.954" r="2.466"/>
	<circle fill="#EFEFEF" cx="1622.322" cy="445.804" r="2.466"/>
	<circle fill="#EFEFEF" cx="1641.173" cy="445.804" r="2.466"/>
	<circle fill="#EFEFEF" cx="1660.023" cy="445.804" r="2.466"/>
	<circle fill="#EFEFEF" cx="1678.874" cy="445.804" r="2.466"/>
	<circle fill="#EFEFEF" cx="1697.725" cy="445.804" r="2.466"/>
	<circle fill="#EFEFEF" cx="1716.575" cy="445.804" r="2.467"/>
	<circle fill="#EFEFEF" cx="1735.426" cy="445.804" r="2.466"/>
	<circle fill="#EFEFEF" cx="1622.322" cy="464.655" r="2.466"/>
	<circle fill="#EFEFEF" cx="1641.173" cy="464.655" r="2.466"/>
	<circle fill="#EFEFEF" cx="1660.023" cy="464.655" r="2.466"/>
	<circle fill="#EFEFEF" cx="1678.874" cy="464.655" r="2.466"/>
	<circle fill="#EFEFEF" cx="1697.725" cy="464.655" r="2.466"/>
	<circle fill="#EFEFEF" cx="1716.575" cy="464.655" r="2.467"/>
	<circle fill="#EFEFEF" cx="1735.426" cy="464.655" r="2.466"/>
	<circle fill="#EFEFEF" cx="1452.668" cy="483.413" r="2.466"/>
	<circle fill="#EFEFEF" cx="1471.519" cy="483.413" r="2.466"/>
	<circle fill="#EFEFEF" cx="1490.369" cy="483.413" r="2.466"/>
	<circle fill="#EFEFEF" cx="1509.22" cy="483.413" r="2.466"/>
	<circle fill="#EFEFEF" cx="1528.07" cy="483.413" r="2.466"/>
	<circle fill="#EFEFEF" cx="1546.921" cy="483.413" r="2.467"/>
	<circle fill="#EFEFEF" cx="1565.771" cy="483.413" r="2.466"/>
	<circle fill="#EFEFEF" cx="1584.622" cy="483.413" r="2.466"/>
	<circle fill="#EFEFEF" cx="1603.472" cy="483.413" r="2.466"/>
	<circle fill="#EFEFEF" cx="1452.668" cy="502.263" r="2.466"/>
	<circle fill="#EFEFEF" cx="1471.519" cy="502.263" r="2.466"/>
	<circle fill="#EFEFEF" cx="1490.369" cy="502.263" r="2.466"/>
	<circle fill="#EFEFEF" cx="1509.22" cy="502.263" r="2.466"/>
	<circle fill="#EFEFEF" cx="1528.07" cy="502.263" r="2.466"/>
	<circle fill="#EFEFEF" cx="1546.921" cy="502.263" r="2.467"/>
	<circle fill="#EFEFEF" cx="1565.771" cy="502.263" r="2.466"/>
	<circle fill="#EFEFEF" cx="1584.622" cy="502.263" r="2.466"/>
	<circle fill="#EFEFEF" cx="1603.472" cy="502.263" r="2.466"/>
	<circle fill="#EFEFEF" cx="1622.322" cy="483.413" r="2.466"/>
	<circle fill="#EFEFEF" cx="1641.173" cy="483.413" r="2.466"/>
	<circle fill="#EFEFEF" cx="1660.023" cy="483.413" r="2.466"/>
	<circle fill="#EFEFEF" cx="1678.874" cy="483.413" r="2.466"/>
	<circle fill="#EFEFEF" cx="1697.725" cy="483.413" r="2.466"/>
	<circle fill="#EFEFEF" cx="1716.575" cy="483.413" r="2.467"/>
	<circle fill="#EFEFEF" cx="1735.426" cy="483.413" r="2.466"/>
	<circle fill="#EFEFEF" cx="1622.322" cy="502.263" r="2.466"/>
	<circle fill="#EFEFEF" cx="1641.173" cy="502.263" r="2.466"/>
	<circle fill="#EFEFEF" cx="1660.023" cy="502.263" r="2.466"/>
	<circle fill="#EFEFEF" cx="1678.874" cy="502.263" r="2.466"/>
	<circle fill="#EFEFEF" cx="1697.725" cy="502.263" r="2.466"/>
	<circle fill="#EFEFEF" cx="1716.575" cy="502.263" r="2.467"/>
	<circle fill="#EFEFEF" cx="1735.426" cy="502.263" r="2.466"/>
	<circle fill="#EFEFEF" cx="1452.668" cy="521.105" r="2.466"/>
	<circle fill="#EFEFEF" cx="1471.519" cy="521.105" r="2.466"/>
	<circle fill="#EFEFEF" cx="1490.369" cy="521.105" r="2.466"/>
	<circle fill="#EFEFEF" cx="1509.22" cy="521.105" r="2.466"/>
	<circle fill="#EFEFEF" cx="1528.07" cy="521.105" r="2.466"/>
	<circle fill="#EFEFEF" cx="1546.921" cy="521.105" r="2.467"/>
	<circle fill="#EFEFEF" cx="1565.771" cy="521.105" r="2.466"/>
	<circle fill="#EFEFEF" cx="1584.622" cy="521.105" r="2.466"/>
	<circle fill="#EFEFEF" cx="1603.472" cy="521.105" r="2.466"/>
	<circle fill="#EFEFEF" cx="1452.668" cy="539.956" r="2.466"/>
	<circle fill="#EFEFEF" cx="1471.519" cy="539.956" r="2.466"/>
	<circle fill="#EFEFEF" cx="1490.369" cy="539.956" r="2.466"/>
	<circle fill="#EFEFEF" cx="1509.22" cy="539.956" r="2.466"/>
	<circle fill="#EFEFEF" cx="1528.07" cy="539.956" r="2.466"/>
	<circle fill="#EFEFEF" cx="1546.921" cy="539.956" r="2.467"/>
	<circle fill="#EFEFEF" cx="1565.771" cy="539.956" r="2.466"/>
	<circle fill="#EFEFEF" cx="1584.622" cy="539.956" r="2.466"/>
	<circle fill="#EFEFEF" cx="1603.472" cy="539.956" r="2.466"/>
	<circle fill="#EFEFEF" cx="1452.668" cy="558.807" r="2.466"/>
	<circle fill="#EFEFEF" cx="1471.519" cy="558.807" r="2.466"/>
	<circle fill="#EFEFEF" cx="1490.369" cy="558.807" r="2.466"/>
	<circle fill="#EFEFEF" cx="1509.22" cy="558.807" r="2.466"/>
	<circle fill="#EFEFEF" cx="1528.07" cy="558.807" r="2.466"/>
	<circle fill="#EFEFEF" cx="1546.921" cy="558.807" r="2.467"/>
	<circle fill="#EFEFEF" cx="1565.771" cy="558.807" r="2.466"/>
	<circle fill="#EFEFEF" cx="1584.622" cy="558.807" r="2.466"/>
	<circle fill="#EFEFEF" cx="1603.472" cy="558.807" r="2.466"/>
	<circle fill="#EFEFEF" cx="1452.668" cy="577.656" r="2.466"/>
	<circle fill="#EFEFEF" cx="1471.519" cy="577.656" r="2.466"/>
	<circle fill="#EFEFEF" cx="1490.369" cy="577.656" r="2.466"/>
	<circle fill="#EFEFEF" cx="1509.22" cy="577.656" r="2.466"/>
	<circle fill="#EFEFEF" cx="1528.07" cy="577.656" r="2.466"/>
	<circle fill="#EFEFEF" cx="1546.921" cy="577.656" r="2.467"/>
	<circle fill="#EFEFEF" cx="1565.771" cy="577.656" r="2.466"/>
	<circle fill="#EFEFEF" cx="1584.622" cy="577.656" r="2.466"/>
	<circle fill="#EFEFEF" cx="1603.472" cy="577.656" r="2.466"/>
	<circle fill="#EFEFEF" cx="1452.668" cy="596.508" r="2.466"/>
	<circle fill="#EFEFEF" cx="1471.519" cy="596.508" r="2.466"/>
	<circle fill="#EFEFEF" cx="1490.369" cy="596.508" r="2.466"/>
	<circle fill="#EFEFEF" cx="1509.22" cy="596.508" r="2.466"/>
	<circle fill="#EFEFEF" cx="1528.07" cy="596.508" r="2.466"/>
	<circle fill="#EFEFEF" cx="1546.921" cy="596.508" r="2.467"/>
	<circle fill="#EFEFEF" cx="1565.771" cy="596.508" r="2.466"/>
	<circle fill="#EFEFEF" cx="1584.622" cy="596.508" r="2.466"/>
	<circle fill="#EFEFEF" cx="1603.472" cy="596.508" r="2.466"/>
	<circle fill="#EFEFEF" cx="1452.668" cy="615.357" r="2.466"/>
	<circle fill="#EFEFEF" cx="1471.519" cy="615.357" r="2.466"/>
	<circle fill="#EFEFEF" cx="1490.369" cy="615.357" r="2.466"/>
	<circle fill="#EFEFEF" cx="1509.22" cy="615.357" r="2.466"/>
	<circle fill="#EFEFEF" cx="1528.07" cy="615.357" r="2.466"/>
	<circle fill="#EFEFEF" cx="1546.921" cy="615.357" r="2.467"/>
	<circle fill="#EFEFEF" cx="1565.771" cy="615.357" r="2.466"/>
	<circle fill="#EFEFEF" cx="1584.622" cy="615.357" r="2.466"/>
	<circle fill="#EFEFEF" cx="1603.472" cy="615.357" r="2.466"/>
	<circle fill="#EFEFEF" cx="1622.322" cy="521.105" r="2.466"/>
	<circle fill="#EFEFEF" cx="1641.173" cy="521.105" r="2.466"/>
	<circle fill="#EFEFEF" cx="1660.023" cy="521.105" r="2.466"/>
	<circle fill="#EFEFEF" cx="1678.874" cy="521.105" r="2.466"/>
	<circle fill="#EFEFEF" cx="1697.725" cy="521.105" r="2.466"/>
	<circle fill="#EFEFEF" cx="1716.575" cy="521.105" r="2.467"/>
	<circle fill="#EFEFEF" cx="1735.426" cy="521.105" r="2.466"/>
	<circle fill="#EFEFEF" cx="1622.322" cy="539.956" r="2.466"/>
	<circle fill="#EFEFEF" cx="1641.173" cy="539.956" r="2.466"/>
	<circle fill="#EFEFEF" cx="1660.023" cy="539.956" r="2.466"/>
	<circle fill="#EFEFEF" cx="1678.874" cy="539.956" r="2.466"/>
	<circle fill="#EFEFEF" cx="1697.725" cy="539.956" r="2.466"/>
	<circle fill="#EFEFEF" cx="1716.575" cy="539.956" r="2.467"/>
	<circle fill="#EFEFEF" cx="1735.426" cy="539.956" r="2.466"/>
	<circle fill="#EFEFEF" cx="1622.322" cy="558.807" r="2.466"/>
	<circle fill="#EFEFEF" cx="1641.173" cy="558.807" r="2.466"/>
	<circle fill="#EFEFEF" cx="1660.023" cy="558.807" r="2.466"/>
	<circle fill="#EFEFEF" cx="1678.874" cy="558.807" r="2.466"/>
	<circle fill="#EFEFEF" cx="1697.725" cy="558.807" r="2.466"/>
	<circle fill="#EFEFEF" cx="1716.575" cy="558.807" r="2.467"/>
	<circle fill="#EFEFEF" cx="1735.426" cy="558.807" r="2.466"/>
	<circle fill="#EFEFEF" cx="1622.322" cy="577.656" r="2.466"/>
	<circle fill="#EFEFEF" cx="1641.173" cy="577.656" r="2.466"/>
	<circle fill="#EFEFEF" cx="1660.023" cy="577.656" r="2.466"/>
	<circle fill="#EFEFEF" cx="1678.874" cy="577.656" r="2.466"/>
	<circle fill="#EFEFEF" cx="1697.725" cy="577.656" r="2.466"/>
	<circle fill="#EFEFEF" cx="1716.575" cy="577.656" r="2.467"/>
	<circle fill="#EFEFEF" cx="1735.426" cy="577.656" r="2.466"/>
	<circle fill="#EFEFEF" cx="1622.322" cy="596.508" r="2.466"/>
	<circle fill="#EFEFEF" cx="1641.173" cy="596.508" r="2.466"/>
	<circle fill="#EFEFEF" cx="1660.023" cy="596.508" r="2.466"/>
	<circle fill="#EFEFEF" cx="1678.874" cy="596.508" r="2.466"/>
	<circle fill="#EFEFEF" cx="1697.725" cy="596.508" r="2.466"/>
	<circle fill="#EFEFEF" cx="1716.575" cy="596.508" r="2.467"/>
	<circle fill="#EFEFEF" cx="1735.426" cy="596.508" r="2.466"/>
	<circle fill="#EFEFEF" cx="1622.322" cy="615.357" r="2.466"/>
	<circle fill="#EFEFEF" cx="1641.173" cy="615.357" r="2.466"/>
	<circle fill="#EFEFEF" cx="1660.023" cy="615.357" r="2.466"/>
	<circle fill="#EFEFEF" cx="1678.874" cy="615.357" r="2.466"/>
	<circle fill="#EFEFEF" cx="1697.725" cy="615.357" r="2.466"/>
	<circle fill="#EFEFEF" cx="1716.575" cy="615.357" r="2.467"/>
	<circle fill="#EFEFEF" cx="1735.426" cy="615.357" r="2.466"/>
</g>
<g>
	<circle fill="#EFEFEF" cx="397.047" cy="1708.437" r="3.102"/>
	<circle fill="#EFEFEF" cx="397.047" cy="1732.146" r="3.101"/>
	<circle fill="#EFEFEF" cx="397.047" cy="1755.855" r="3.103"/>
	<circle fill="#EFEFEF" cx="397.047" cy="1779.564" r="3.102"/>
	<circle fill="#EFEFEF" cx="397.047" cy="1803.274" r="3.101"/>
	<circle fill="#EFEFEF" cx="397.047" cy="1826.983" r="3.102"/>
	<circle fill="#EFEFEF" cx="373.338" cy="1708.437" r="3.102"/>
	<circle fill="#EFEFEF" cx="373.338" cy="1732.146" r="3.101"/>
	<circle fill="#EFEFEF" cx="373.338" cy="1755.855" r="3.103"/>
	<circle fill="#EFEFEF" cx="373.338" cy="1779.564" r="3.102"/>
	<circle fill="#EFEFEF" cx="373.338" cy="1803.274" r="3.101"/>
	<circle fill="#EFEFEF" cx="373.338" cy="1826.983" r="3.102"/>
	<circle fill="#EFEFEF" cx="349.629" cy="1708.437" r="3.102"/>
	<circle fill="#EFEFEF" cx="349.629" cy="1732.146" r="3.101"/>
	<circle fill="#EFEFEF" cx="349.629" cy="1755.855" r="3.103"/>
	<circle fill="#EFEFEF" cx="349.629" cy="1779.564" r="3.102"/>
	<circle fill="#EFEFEF" cx="349.629" cy="1803.274" r="3.101"/>
	<circle fill="#EFEFEF" cx="349.629" cy="1826.983" r="3.102"/>
	<circle fill="#EFEFEF" cx="397.047" cy="1850.691" r="3.102"/>
	<circle fill="#EFEFEF" cx="397.047" cy="1874.4" r="3.102"/>
	<circle fill="#EFEFEF" cx="397.047" cy="1898.11" r="3.101"/>
	<circle fill="#EFEFEF" cx="397.047" cy="1921.819" r="3.102"/>
	<circle fill="#EFEFEF" cx="373.338" cy="1850.691" r="3.102"/>
	<circle fill="#EFEFEF" cx="373.338" cy="1874.4" r="3.102"/>
	<circle fill="#EFEFEF" cx="373.338" cy="1898.11" r="3.101"/>
	<circle fill="#EFEFEF" cx="373.338" cy="1921.819" r="3.102"/>
	<circle fill="#EFEFEF" cx="349.629" cy="1850.691" r="3.102"/>
	<circle fill="#EFEFEF" cx="349.629" cy="1874.4" r="3.102"/>
	<circle fill="#EFEFEF" cx="349.629" cy="1898.11" r="3.101"/>
	<circle fill="#EFEFEF" cx="349.629" cy="1921.819" r="3.102"/>
	<circle fill="#EFEFEF" cx="325.931" cy="1708.437" r="3.102"/>
	<circle fill="#EFEFEF" cx="325.931" cy="1732.146" r="3.101"/>
	<circle fill="#EFEFEF" cx="325.931" cy="1755.855" r="3.103"/>
	<circle fill="#EFEFEF" cx="325.931" cy="1779.564" r="3.102"/>
	<circle fill="#EFEFEF" cx="325.931" cy="1803.274" r="3.101"/>
	<circle fill="#EFEFEF" cx="325.931" cy="1826.983" r="3.102"/>
	<circle fill="#EFEFEF" cx="302.222" cy="1708.437" r="3.102"/>
	<circle fill="#EFEFEF" cx="302.222" cy="1732.146" r="3.101"/>
	<circle fill="#EFEFEF" cx="302.222" cy="1755.855" r="3.103"/>
	<circle fill="#EFEFEF" cx="302.222" cy="1779.564" r="3.102"/>
	<circle fill="#EFEFEF" cx="302.222" cy="1803.274" r="3.101"/>
	<circle fill="#EFEFEF" cx="302.222" cy="1826.983" r="3.102"/>
	<circle fill="#EFEFEF" cx="278.512" cy="1708.437" r="3.102"/>
	<circle fill="#EFEFEF" cx="278.512" cy="1732.146" r="3.101"/>
	<circle fill="#EFEFEF" cx="278.512" cy="1755.855" r="3.103"/>
	<circle fill="#EFEFEF" cx="278.512" cy="1779.564" r="3.102"/>
	<circle fill="#EFEFEF" cx="278.512" cy="1803.274" r="3.101"/>
	<circle fill="#EFEFEF" cx="278.512" cy="1826.983" r="3.102"/>
	<circle fill="#EFEFEF" cx="254.803" cy="1708.437" r="3.102"/>
	<circle fill="#EFEFEF" cx="254.803" cy="1732.146" r="3.101"/>
	<circle fill="#EFEFEF" cx="254.803" cy="1755.855" r="3.103"/>
	<circle fill="#EFEFEF" cx="254.803" cy="1779.564" r="3.102"/>
	<circle fill="#EFEFEF" cx="254.803" cy="1803.274" r="3.101"/>
	<circle fill="#EFEFEF" cx="254.803" cy="1826.983" r="3.102"/>
	<circle fill="#EFEFEF" cx="231.094" cy="1708.437" r="3.102"/>
	<circle fill="#EFEFEF" cx="231.094" cy="1732.146" r="3.101"/>
	<circle fill="#EFEFEF" cx="231.094" cy="1755.855" r="3.103"/>
	<circle fill="#EFEFEF" cx="231.094" cy="1779.564" r="3.102"/>
	<circle fill="#EFEFEF" cx="231.094" cy="1803.274" r="3.101"/>
	<circle fill="#EFEFEF" cx="231.094" cy="1826.983" r="3.102"/>
	<circle fill="#EFEFEF" cx="207.384" cy="1708.437" r="3.102"/>
	<circle fill="#EFEFEF" cx="207.384" cy="1732.146" r="3.101"/>
	<circle fill="#EFEFEF" cx="207.384" cy="1755.855" r="3.103"/>
	<circle fill="#EFEFEF" cx="207.384" cy="1779.564" r="3.102"/>
	<circle fill="#EFEFEF" cx="207.384" cy="1803.274" r="3.101"/>
	<circle fill="#EFEFEF" cx="207.384" cy="1826.983" r="3.102"/>
	<circle fill="#EFEFEF" cx="325.931" cy="1850.691" r="3.102"/>
	<circle fill="#EFEFEF" cx="325.931" cy="1874.4" r="3.102"/>
	<circle fill="#EFEFEF" cx="325.931" cy="1898.11" r="3.101"/>
	<circle fill="#EFEFEF" cx="325.931" cy="1921.819" r="3.102"/>
	<circle fill="#EFEFEF" cx="302.222" cy="1850.691" r="3.102"/>
	<circle fill="#EFEFEF" cx="302.222" cy="1874.4" r="3.102"/>
	<circle fill="#EFEFEF" cx="302.222" cy="1898.11" r="3.101"/>
	<circle fill="#EFEFEF" cx="302.222" cy="1921.819" r="3.102"/>
	<circle fill="#EFEFEF" cx="278.512" cy="1850.691" r="3.102"/>
	<circle fill="#EFEFEF" cx="278.512" cy="1874.4" r="3.102"/>
	<circle fill="#EFEFEF" cx="278.512" cy="1898.11" r="3.101"/>
	<circle fill="#EFEFEF" cx="278.512" cy="1921.819" r="3.102"/>
	<circle fill="#EFEFEF" cx="254.803" cy="1850.691" r="3.102"/>
	<circle fill="#EFEFEF" cx="254.803" cy="1874.4" r="3.102"/>
	<circle fill="#EFEFEF" cx="254.803" cy="1898.11" r="3.101"/>
	<circle fill="#EFEFEF" cx="254.803" cy="1921.819" r="3.102"/>
	<circle fill="#EFEFEF" cx="231.094" cy="1850.691" r="3.102"/>
	<circle fill="#EFEFEF" cx="231.094" cy="1874.4" r="3.102"/>
	<circle fill="#EFEFEF" cx="231.094" cy="1898.11" r="3.101"/>
	<circle fill="#EFEFEF" cx="231.094" cy="1921.819" r="3.102"/>
	<circle fill="#EFEFEF" cx="207.384" cy="1850.691" r="3.102"/>
	<circle fill="#EFEFEF" cx="207.384" cy="1874.4" r="3.102"/>
	<circle fill="#EFEFEF" cx="207.384" cy="1898.11" r="3.101"/>
	<circle fill="#EFEFEF" cx="207.384" cy="1921.819" r="3.102"/>
	<circle fill="#EFEFEF" cx="183.792" cy="1708.437" r="3.102"/>
	<circle fill="#EFEFEF" cx="183.792" cy="1732.146" r="3.101"/>
	<circle fill="#EFEFEF" cx="183.792" cy="1755.855" r="3.103"/>
	<circle fill="#EFEFEF" cx="183.792" cy="1779.564" r="3.102"/>
	<circle fill="#EFEFEF" cx="183.792" cy="1803.274" r="3.101"/>
	<circle fill="#EFEFEF" cx="183.792" cy="1826.983" r="3.102"/>
	<circle fill="#EFEFEF" cx="160.083" cy="1708.437" r="3.102"/>
	<circle fill="#EFEFEF" cx="160.083" cy="1732.146" r="3.101"/>
	<circle fill="#EFEFEF" cx="160.083" cy="1755.855" r="3.103"/>
	<circle fill="#EFEFEF" cx="160.083" cy="1779.564" r="3.102"/>
	<circle fill="#EFEFEF" cx="160.083" cy="1803.274" r="3.101"/>
	<circle fill="#EFEFEF" cx="160.083" cy="1826.983" r="3.102"/>
	<circle fill="#EFEFEF" cx="183.792" cy="1850.691" r="3.102"/>
	<circle fill="#EFEFEF" cx="183.792" cy="1874.4" r="3.102"/>
	<circle fill="#EFEFEF" cx="183.792" cy="1898.11" r="3.101"/>
	<circle fill="#EFEFEF" cx="183.792" cy="1921.819" r="3.102"/>
	<circle fill="#EFEFEF" cx="160.083" cy="1850.691" r="3.102"/>
	<circle fill="#EFEFEF" cx="160.083" cy="1874.4" r="3.102"/>
	<circle fill="#EFEFEF" cx="160.083" cy="1898.11" r="3.101"/>
	<circle fill="#EFEFEF" cx="160.083" cy="1921.819" r="3.102"/>
	<circle fill="#EFEFEF" cx="136.384" cy="1708.437" r="3.102"/>
	<circle fill="#EFEFEF" cx="136.384" cy="1732.146" r="3.101"/>
	<circle fill="#EFEFEF" cx="136.384" cy="1755.855" r="3.103"/>
	<circle fill="#EFEFEF" cx="136.384" cy="1779.564" r="3.102"/>
	<circle fill="#EFEFEF" cx="136.384" cy="1803.274" r="3.101"/>
	<circle fill="#EFEFEF" cx="136.384" cy="1826.983" r="3.102"/>
	<circle fill="#EFEFEF" cx="112.675" cy="1708.437" r="3.102"/>
	<circle fill="#EFEFEF" cx="112.675" cy="1732.146" r="3.101"/>
	<circle fill="#EFEFEF" cx="112.675" cy="1755.855" r="3.103"/>
	<circle fill="#EFEFEF" cx="112.675" cy="1779.564" r="3.102"/>
	<circle fill="#EFEFEF" cx="112.675" cy="1803.274" r="3.101"/>
	<circle fill="#EFEFEF" cx="112.675" cy="1826.983" r="3.102"/>
	<circle fill="#EFEFEF" cx="88.964" cy="1708.437" r="3.102"/>
	<circle fill="#EFEFEF" cx="88.964" cy="1732.146" r="3.101"/>
	<circle fill="#EFEFEF" cx="88.964" cy="1755.855" r="3.103"/>
	<circle fill="#EFEFEF" cx="88.964" cy="1779.564" r="3.102"/>
	<circle fill="#EFEFEF" cx="88.964" cy="1803.274" r="3.101"/>
	<circle fill="#EFEFEF" cx="88.964" cy="1826.983" r="3.102"/>
	<circle fill="#EFEFEF" cx="65.256" cy="1708.437" r="3.102"/>
	<circle fill="#EFEFEF" cx="65.256" cy="1732.146" r="3.101"/>
	<circle fill="#EFEFEF" cx="65.256" cy="1755.855" r="3.103"/>
	<circle fill="#EFEFEF" cx="65.256" cy="1779.564" r="3.102"/>
	<circle fill="#EFEFEF" cx="65.256" cy="1803.274" r="3.101"/>
	<circle fill="#EFEFEF" cx="65.256" cy="1826.983" r="3.102"/>
	<circle fill="#EFEFEF" cx="41.545" cy="1708.437" r="3.102"/>
	<circle fill="#EFEFEF" cx="41.545" cy="1732.146" r="3.101"/>
	<circle fill="#EFEFEF" cx="41.545" cy="1755.855" r="3.103"/>
	<circle fill="#EFEFEF" cx="41.545" cy="1779.564" r="3.102"/>
	<circle fill="#EFEFEF" cx="41.545" cy="1803.274" r="3.101"/>
	<circle fill="#EFEFEF" cx="41.545" cy="1826.983" r="3.102"/>
	<circle fill="#EFEFEF" cx="17.837" cy="1708.437" r="3.102"/>
	<circle fill="#EFEFEF" cx="17.837" cy="1732.146" r="3.101"/>
	<circle fill="#EFEFEF" cx="17.837" cy="1755.855" r="3.103"/>
	<circle fill="#EFEFEF" cx="17.837" cy="1779.564" r="3.102"/>
	<circle fill="#EFEFEF" cx="17.837" cy="1803.274" r="3.101"/>
	<circle fill="#EFEFEF" cx="17.837" cy="1826.983" r="3.102"/>
	<circle fill="#EFEFEF" cx="136.384" cy="1850.691" r="3.102"/>
	<circle fill="#EFEFEF" cx="136.384" cy="1874.4" r="3.102"/>
	<circle fill="#EFEFEF" cx="136.384" cy="1898.11" r="3.101"/>
	<circle fill="#EFEFEF" cx="136.384" cy="1921.819" r="3.102"/>
	<circle fill="#EFEFEF" cx="112.675" cy="1850.691" r="3.102"/>
	<circle fill="#EFEFEF" cx="112.675" cy="1874.4" r="3.102"/>
	<circle fill="#EFEFEF" cx="112.675" cy="1898.11" r="3.101"/>
	<circle fill="#EFEFEF" cx="112.675" cy="1921.819" r="3.102"/>
	<circle fill="#EFEFEF" cx="88.964" cy="1850.691" r="3.102"/>
	<circle fill="#EFEFEF" cx="88.964" cy="1874.4" r="3.102"/>
	<circle fill="#EFEFEF" cx="88.964" cy="1898.11" r="3.101"/>
	<circle fill="#EFEFEF" cx="88.964" cy="1921.819" r="3.102"/>
	<circle fill="#EFEFEF" cx="65.256" cy="1850.691" r="3.102"/>
	<circle fill="#EFEFEF" cx="65.256" cy="1874.4" r="3.102"/>
	<circle fill="#EFEFEF" cx="65.256" cy="1898.11" r="3.101"/>
	<circle fill="#EFEFEF" cx="65.256" cy="1921.819" r="3.102"/>
	<circle fill="#EFEFEF" cx="41.545" cy="1850.691" r="3.102"/>
	<circle fill="#EFEFEF" cx="41.545" cy="1874.4" r="3.102"/>
	<circle fill="#EFEFEF" cx="41.545" cy="1898.11" r="3.101"/>
	<circle fill="#EFEFEF" cx="41.545" cy="1921.819" r="3.102"/>
	<circle fill="#EFEFEF" cx="17.837" cy="1850.691" r="3.102"/>
	<circle fill="#EFEFEF" cx="17.837" cy="1874.4" r="3.102"/>
	<circle fill="#EFEFEF" cx="17.837" cy="1898.11" r="3.101"/>
	<circle fill="#EFEFEF" cx="17.837" cy="1921.819" r="3.102"/>
</g>
</svg>
