<?xml version="1.0" encoding="utf-8"?>
<!-- Generator: Adobe Illustrator 16.0.0, SVG Export Plug-In . SVG Version: 6.00 Build 0)  -->
<!DOCTYPE svg PUBLIC "-//W3C//DTD SVG 1.1//EN" "http://www.w3.org/Graphics/SVG/1.1/DTD/svg11.dtd">
<svg version="1.1" id="圖層_1" xmlns="http://www.w3.org/2000/svg" xmlns:xlink="http://www.w3.org/1999/xlink" x="0px" y="0px"
	 width="150px" height="50px" viewBox="0 0 150 50" enable-background="new 0 0 150 50" xml:space="preserve">
<g>
	<g>
		<path fill="#595757" d="M9.687,41.416c-3.638,0-6.638-1.742-8.678-5.037c-0.233-0.377-0.117-0.873,0.26-1.106
			c0.378-0.233,0.873-0.117,1.107,0.26c1.731,2.797,4.258,4.274,7.31,4.274c4.501,0,7.646-2.687,7.646-6.533
			c0-4.036-2.24-6.484-7.488-8.19c-5.212-1.721-7.337-4.272-7.337-8.812c0-4.811,3.985-7.687,7.838-7.687
			c3.736,0,6.335,1.663,7.722,4.943c0.173,0.41-0.018,0.881-0.427,1.055c-0.409,0.172-0.881-0.017-1.053-0.427
			c-1.128-2.667-3.169-3.963-6.241-3.963c-3.063,0-6.229,2.274-6.229,6.078c0,3.811,1.688,5.783,6.228,7.283
			c5.943,1.932,8.596,4.93,8.596,9.719C18.941,38.066,15.136,41.416,9.687,41.416z"/>
	</g>
	<g>
		<g>
			<path fill="#595757" d="M34.219,41.416c-0.445,0-0.804-0.36-0.804-0.806V9.389c0-0.444,0.359-0.804,0.804-0.804
				c0.444,0,0.804,0.359,0.804,0.804V40.61C35.023,41.056,34.664,41.416,34.219,41.416z"/>
		</g>
		<g>
			<path fill="#595757" d="M50.663,41.416c-0.444,0-0.804-0.36-0.804-0.806V9.389c0-0.444,0.36-0.804,0.804-0.804
				s0.804,0.359,0.804,0.804V40.61C51.467,41.056,51.107,41.416,50.663,41.416z"/>
		</g>
		<g>
			<path fill="#595757" d="M50.453,24.127H34.403c-0.444,0-0.804-0.36-0.804-0.805s0.36-0.805,0.804-0.805h16.049
				c0.444,0,0.804,0.36,0.804,0.805S50.897,24.127,50.453,24.127z"/>
		</g>
	</g>
	<g>
		<g>
			<path fill="#595757" d="M66.746,41.416c-0.069,0-0.139-0.01-0.208-0.028c-0.429-0.113-0.683-0.554-0.569-0.983l8.315-31.223
				c0.094-0.353,0.414-0.597,0.778-0.597c0,0,0,0,0,0c0.364,0,0.682,0.245,0.777,0.598l8.278,31.223
				c0.114,0.429-0.143,0.87-0.572,0.982c-0.426,0.114-0.869-0.142-0.983-0.571L75.06,12.52l-7.537,28.298
				C67.425,41.178,67.101,41.416,66.746,41.416z"/>
		</g>
		<g>
			<path fill="#595757" d="M78.756,24.127h-7.269c-0.445,0-0.805-0.36-0.805-0.805s0.36-0.805,0.805-0.805h7.269
				c0.443,0,0.805,0.36,0.805,0.805S79.199,24.127,78.756,24.127z"/>
		</g>
	</g>
	<g>
		<g>
			<path fill="#595757" d="M148.306,41.416h-16.425c-0.444,0-0.806-0.36-0.806-0.806V9.389c0-0.444,0.361-0.804,0.806-0.804h15.835
				c0.444,0,0.805,0.359,0.805,0.804s-0.36,0.805-0.805,0.805h-15.031v29.613h15.621c0.446,0,0.806,0.359,0.806,0.804
				C149.111,41.056,148.752,41.416,148.306,41.416z"/>
		</g>
		<g>
			<path fill="#595757" d="M145.147,24.127h-13.267c-0.444,0-0.806-0.36-0.806-0.805s0.361-0.805,0.806-0.805h13.267
				c0.444,0,0.803,0.36,0.803,0.805S145.592,24.127,145.147,24.127z"/>
		</g>
	</g>
	<g>
		<path fill="#595757" d="M99.346,41.416c-0.444,0-0.802-0.36-0.802-0.806V9.388c0-0.214,0.083-0.418,0.233-0.568
			s0.356-0.235,0.568-0.235l0,0l9.479,0.001c4.283,0,7.769,3.485,7.769,7.77c0,4.287-3.485,7.772-7.769,7.772h-8.673V40.61
			C100.151,41.056,99.79,41.416,99.346,41.416z M100.151,22.518h8.673c3.396,0,6.161-2.765,6.161-6.163
			c0-3.397-2.765-6.161-6.161-6.161l-8.673-0.001V22.518z"/>
	</g>
</g>
</svg>
